<svg width="31" height="31" viewBox="0 0 31 31" fill="none" xmlns="http://www.w3.org/2000/svg">
<path d="M4.76777 1.23223C3.79146 0.255922 2.20854 0.255922 1.23223 1.23223C0.255922 2.20854 0.255922 3.79146 1.23223 4.76777L4.76777 1.23223ZM26.2322 29.7678C27.2085 30.7441 28.7915 30.7441 29.7678 29.7678C30.7441 28.7915 30.7441 27.2085 29.7678 26.2322L26.2322 29.7678ZM29.7678 4.76777C30.7441 3.79146 30.7441 2.20854 29.7678 1.23223C28.7915 0.255922 27.2085 0.255922 26.2322 1.23223L29.7678 4.76777ZM1.23223 26.2322C0.255922 27.2085 0.255922 28.7915 1.23223 29.7678C2.20854 30.7441 3.79146 30.7441 4.76777 29.7678L1.23223 26.2322ZM1.23223 4.76777L26.2322 29.7678L29.7678 26.2322L4.76777 1.23223L1.23223 4.76777ZM26.2322 1.23223L1.23223 26.2322L4.76777 29.7678L29.7678 4.76777L26.2322 1.23223Z" fill="#FC5C65"/>
</svg>
